<?xml version="1.0" encoding="utf-8"?>
<!-- Generator: Adobe Illustrator 17.0.0, SVG Export Plug-In . SVG Version: 6.00 Build 0)  -->
<!DOCTYPE svg PUBLIC "-//W3C//DTD SVG 1.1//EN" "http://www.w3.org/Graphics/SVG/1.1/DTD/svg11.dtd">
<svg version="1.1" id="Camada_1" xmlns="http://www.w3.org/2000/svg" xmlns:xlink="http://www.w3.org/1999/xlink" x="0px" y="0px"
	 width="841.89px" height="595.28px" viewBox="0 0 841.89 595.28" enable-background="new 0 0 841.89 595.28" xml:space="preserve">
<a xlink:title="Centro">
	<path fill="#D55050" stroke="#FFFFFF" stroke-width="0.0987" d="M509.61,538.833l-14.589-4.863l-9.726-2.431h-2.432l-7.295-2.432
		l-12.168-4.863h-4.863l-21.884-7.295h-2.421l-17.031-7.295h-2.432l-9.726-2.432l-4.863-2.431h-4.863l-12.158-4.863l-9.726-2.431
		l-2.431-2.432l-19.452-4.863l-14.589-4.863l-17.021-4.863l-29.178-9.726l-31.61-9.726l-9.726-2.432l-7.295-2.431l-12.168-4.863
		h-2.421l-14.599-4.863l-7.295-2.431h-4.863l-12.158-4.863l-14.589-4.863l-31.61-9.726l-29.178-9.726l-31.61-9.726l-29.178-9.726
		l9.726-21.884v-2.432l2.432-2.431l4.863-2.432v-2.432v-2.431l-4.863-24.315l-2.432-29.168l-2.431-21.894l-2.431-7.295
		l-2.432-14.579l-2.431-12.158v-12.168l-2.431-9.726l-2.432-12.148v-7.305l-9.726-2.421l-4.873-2.442l-12.148-2.421l2.421-7.295
		l2.442-12.158l4.863-12.158l2.422-12.158l2.442-7.295l2.431-2.432v-9.726l-2.431-14.589l-2.442-21.884L30.58,81.717l-2.442-21.884
		L23.275,37.95l-2.421-17.021v-2.432h4.863l4.863,2.432h2.422l2.442,2.431l12.157,2.431l7.295,2.431l31.61,7.295l12.157,4.863h4.863
		l7.295,2.431l9.726,2.431l14.589,4.863l4.863,2.431l9.726,2.432l4.863,2.431l14.589,2.431l4.863,2.431l9.726,2.432l2.442,2.431
		h2.422h2.442l7.284,2.432l9.726,4.863l12.157,2.431h4.863l12.168,4.863l7.295,2.431h2.431l4.863,2.431h2.431h2.432l4.853,2.431
		h4.863h4.873h4.863h4.863h2.431h2.432h2.431h2.431h2.431h4.863l4.863,2.432h4.863l14.589,4.863l14.589,4.863l12.158,4.863
		l17.021,4.863l31.61,12.158l31.62,9.726l4.863-9.726l4.853-17.021l9.726-36.473l14.589,4.863l21.894-12.158l-9.726-14.589
		l21.884,4.863l24.315-51.062l4.863,2.432l-2.431,7.294l19.452,12.158l12.158-21.884l31.61,12.158l24.315-4.863l12.158,2.431v2.432
		l-2.432,2.431v2.431l2.432,14.589l-2.432,7.295v9.726v4.863v31.61v12.158h2.432h7.295l4.863-2.432l2.432,7.295v14.589v26.747
		l-4.863,29.178l41.346,2.432l14.579,2.432h34.041l12.168,2.431h21.884l24.315,2.432h4.863h2.431l19.452,2.432h12.157l-9.726,34.031
		l-4.873,12.168l-4.853,21.874l-4.863,12.158l-7.295,19.452l-2.431,9.726l-4.863,19.452v2.442l-2.431,4.853l-4.873,12.158v2.431
		l-4.853,9.726L767.36,358.9l-4.873,12.158v2.432v2.432l-2.422,7.295l-4.873,12.158l-2.431,12.158l-2.422,2.432l-2.431,9.726
		l-4.873,12.158l-2.421,9.726l-2.431,12.158l-2.432,7.295v2.432l-2.442,2.431l-2.431,12.158l-4.853,12.158v2.431l-2.442,2.432v7.295
		l-4.853,14.589v2.431l-7.305-2.431l-7.295,17.021l-9.726,36.463l-2.431,2.442l-4.853,21.873l-29.188-7.284l-2.421-2.442
		l-29.188-9.726l-31.61-9.716l-24.315-7.295h-2.432L509.61,538.833z"/>
</a>
<text transform="matrix(1 0 0 1 375.2413 309.0955)" fill="#010101" font-family="'ArialMT'" font-size="30.394">Centro</text>
</svg>
